<svg xmlns="http://www.w3.org/2000/svg" width="122" height="122" fill="none" viewBox="0 0 122 122">
  <path fill="#fff" stroke="#11827F" stroke-linecap="round" stroke-linejoin="round" stroke-width="4" d="M92.68 77.74V23a2.07 2.07 0 00-2.06-2.08H13.38A2.07 2.07 0 0011.33 23v54.74H5.39v4.69a4.13 4.13 0 004.11 4.15h85a4.14 4.14 0 004.12-4.15v-4.69h-5.94z"/>
  <path fill="#18BEBD" d="M88.56 24.09v48.56H40l48.56-48.56z" opacity=".15"/>
  <path stroke="#18BEBD" stroke-linecap="round" stroke-miterlimit="10" stroke-width="2" d="M16.44 77.93h71.12M54.35 43.72h20.02M54.35 55.09h20.02"/>
  <path fill="#fff" d="M70.12 102.19a2 2 0 01-2-2v-57a2 2 0 012-2h35.11a2 2 0 011.41.58l9.89 9.89c.376.373.588.88.59 1.41v47.11a2 2 0 01-2 2l-45 .01z"/>
  <path fill="#11827F" d="M105.23 43.19l9.89 9.89v47.11h-45v-57h35.11zm0-4H70.12a4 4 0 00-4 4v57a3.998 3.998 0 004 4h45a3.995 3.995 0 002.828-1.172 3.995 3.995 0 001.172-2.828V53.08c0-.526-.103-1.046-.303-1.532a4.012 4.012 0 00-.867-1.298l-9.89-9.88a4 4 0 00-2.82-1.17l-.01-.01z"/>
  <path fill="#18BEBD" d="M113.63 56.79v41.9h-41.9l41.9-41.9z" opacity=".15"/>
  <path fill="#11827F" d="M106.45 53.64a1.92 1.92 0 01-1.93-1.93v-8.42a1.34 1.34 0 011.34-1.29 1.312 1.312 0 01.93.39l9 9a1.335 1.335 0 01.288 1.449 1.33 1.33 0 01-1.228.821l-8.4-.02z"/>
  <path fill="#11827F" d="M105.86 42.46a.85.85 0 01.58.24l9 9a.83.83 0 01-.58 1.42h-8.42a1.43 1.43 0 01-1.44-1.41v-8.42a.836.836 0 01.247-.59.824.824 0 01.593-.24h.02zm-.02-1a1.828 1.828 0 00-1.84 1.83v8.42a2.43 2.43 0 002.43 2.43h8.42a1.83 1.83 0 001.31-3.14l-9-9a1.775 1.775 0 00-1.28-.54h-.04z"/>
  <path fill="#57B320" d="M79.17 57.84a3.75 3.75 0 100-7.5 3.75 3.75 0 000 7.5z"/>
  <g>
    <path stroke="#18BEBD" stroke-linecap="round" stroke-linejoin="round" stroke-width="2" d="M74.7 73.86h34.87M95.73 81.04h13.84M74.7 66.37H109.57M95.73 73.86v-7.49M109.57 73.86v-7.49M74.7 73.86v-7.49"/>
  </g>
  <g>
    <path fill="#57B320" d="M34.21 60.41c6.075 0 11-4.925 11-11s-4.925-11-11-11-11 4.925-11 11 4.925 11 11 11z"/>
    <path stroke="#fff" stroke-linecap="round" stroke-linejoin="round" stroke-width="3" d="M39.8 45.68l-7.45 7.45-3.73-3.72"/>
  </g>
</svg>
