<svg xmlns="http://www.w3.org/2000/svg" width="122" height="122" fill="none" viewBox="0 0 122 122">
  <path fill="#fff" stroke="#008481" stroke-linecap="round" stroke-linejoin="round" stroke-width="4" d="M102.54 33.68a40.072 40.072 0 00-21-5.5 40.132 40.132 0 00-21 5.5 40.072 40.072 0 00-21-5.5 40.132 40.132 0 00-21 5.5v59.23h84V33.68z"/>
  <path stroke="#00C1BF" stroke-linecap="round" stroke-linejoin="round" stroke-width="2" d="M60.54 87.79V37.02M98.63 87.79a36.41 36.41 0 00-19-5 36.4 36.4 0 00-19 5 36.37 36.37 0 00-19-5 36.37 36.37 0 00-19 5"/>
  <path fill="#00C1BF" d="M47.61 33v47.32a33.668 33.668 0 0112.11 4.4V37.36A33.67 33.67 0 0047.61 33zM87.06 33v47.32a33.668 33.668 0 0112.11 4.4V37.36A33.67 33.67 0 0087.06 33z" opacity=".15"/>
  <g>
    <path fill="#53B700" d="M40.54 47.47a11.16 11.16 0 100 22.32 11.16 11.16 0 000-22.32zm0 16.37a5.21 5.21 0 110-10.42 5.21 5.21 0 010 10.42z" opacity=".3"/>
    <path fill="#53B700" d="M44.07 48l-1.88 5.66a5.49 5.49 0 013.56 5h6C51.7 54.57 48.5 49.5 44.07 48z" opacity=".6"/>
    <path fill="#53B700" d="M40.54 69.77c6.17 0 11.16-4 11.16-11.14h-6a5.078 5.078 0 01-5.21 5.18 5.21 5.21 0 01-3.21-1.12l-3.68 4.68a11.14 11.14 0 006.94 2.4z"/>
  </g>
  <g>
    <path fill="#57B520" d="M91.96 48.02h-4.11c-.37 0-.67.3-.67.67v20.43c0 .37.3.67.67.67h4.11c.37 0 .67-.3.67-.67V48.69c0-.37-.3-.67-.67-.67z"/>
    <path fill="#00C1BF" d="M83.52 52.83h-4.11c-.37 0-.67.3-.67.67v15.62c0 .37.3.67.67.67h4.11c.37 0 .67-.3.67-.67V53.5c0-.37-.3-.67-.67-.67zM75.08 57.64h-4.11c-.37 0-.67.3-.67.67v10.81c0 .37.3.67.67.67h4.11c.37 0 .67-.3.67-.67V58.31c0-.37-.3-.67-.67-.67z"/>
  </g>
</svg>
