<svg xmlns="http://www.w3.org/2000/svg" width="122" height="122" fill="none" viewBox="0 0 122 122">
  <path fill="#fff" stroke="#008481" stroke-linecap="round" stroke-linejoin="round" stroke-width="4" d="M90.19 25.13H15.2v43.72h74.99V25.13z"/>
  <path fill="#57B520" d="M84.62 30.2v33.58H58a15.14 15.14 0 005.94-4.36h10.42a5.9 5.9 0 015.9-5.9V40.46a5.9 5.9 0 01-5.9-5.9H63.89A15.14 15.14 0 0058 30.2h26.62z" opacity=".4"/>
  <path fill="#57B520" d="M53.19 32.21c-6.58 0-11.92 6.66-11.92 14.88S46.61 62 53.19 62s11.92-6.66 11.92-14.88-5.34-14.91-11.92-14.91zM60 51.49a9.059 9.059 0 00-2.41-.49 5.53 5.53 0 01-2-.56 6.22 6.22 0 003.32-5.61 5.74 5.74 0 10-11.45 0 6.23 6.23 0 003.33 5.61 5.53 5.53 0 01-2 .56 8.998 8.998 0 00-2.37.47A2.85 2.85 0 0045 52.82a15.342 15.342 0 01-1.08-5.73c0-6.76 4.17-12.26 9.3-12.26 5.13 0 9.3 5.5 9.3 12.26a15.338 15.338 0 01-1.08 5.73A2.85 2.85 0 0060 51.49z"/>
  <path fill="#57B520" d="M42.49 59.42H31a5.9 5.9 0 00-5.9-5.9V40.46a5.9 5.9 0 005.9-5.9h11.49a15.07 15.07 0 015.94-4.36H20.76v33.58h27.67a15.069 15.069 0 01-5.94-4.36z" opacity=".4"/>
  <path fill="#fff" d="M86.47 66.63H48.92l14.97-7.38h22.58v7.38z"/>
  <g opacity=".2" style="mix-blend-mode:multiply">
    <path fill="#57B520" d="M86.47 28.8v36.36H53.11L86.47 28.8z"/>
  </g>
  <g>
    <path fill="#fff" stroke="#008481" stroke-linecap="round" stroke-linejoin="round" stroke-width="4" d="M105.89 65.7H57.98v30.26h47.91V65.7z"/>
    <path fill="#53B700" d="M100.67 70.58H63.19v5.04h37.48v-5.04z"/>
    <path stroke="#00C1BF" stroke-linecap="round" stroke-linejoin="round" stroke-width="2" d="M72.74 86.8a3 3 0 01-3 3l-2.36-.11a3.035 3.035 0 110-6.07"/>
    <path stroke="#00C1BF" stroke-linecap="round" stroke-linejoin="round" stroke-width="2" d="M69.59 86.68a3 3 0 013-3l2.36.12a3.03 3.03 0 110 6.06"/>
    <g opacity=".2" style="mix-blend-mode:multiply">
      <path fill="#00C1BF" d="M102.11 69.35v23.08H79.03l23.08-23.08z"/>
    </g>
  </g>
</svg>
